<?xml version="1.0" encoding="UTF-8"?>
<!DOCTYPE svg PUBLIC "-//W3C//DTD SVG 1.1//EN" "http://www.w3.org/Graphics/SVG/1.1/DTD/svg11.dtd">
<svg xmlns="http://www.w3.org/2000/svg" version="1.1" width="70px" height="65px" style="shape-rendering:geometricPrecision; text-rendering:geometricPrecision; image-rendering:optimizeQuality; fill-rule:evenodd; clip-rule:evenodd" xmlns:xlink="http://www.w3.org/1999/xlink">
<g><path style="opacity:1" fill="#f5f4f4" d="M -0.5,-0.5 C 22.8333,-0.5 46.1667,-0.5 69.5,-0.5C 69.5,21.1667 69.5,42.8333 69.5,64.5C 46.1667,64.5 22.8333,64.5 -0.5,64.5C -0.5,42.8333 -0.5,21.1667 -0.5,-0.5 Z"/></g>
<g><path style="opacity:1" fill="#e3352a" d="M 12.5,5.5 C 26.5,5.5 40.5,5.5 54.5,5.5C 54.5,7.16667 54.5,8.83333 54.5,10.5C 61.0653,9.42195 63.232,12.0886 61,18.5C 59.1847,24.8141 55.018,28.4807 48.5,29.5C 46.5584,34.4412 43.2251,38.1078 38.5,40.5C 37.0956,43.4033 37.429,46.0699 39.5,48.5C 41.8998,49.0183 43.8998,50.185 45.5,52C 47.1341,52.4935 48.8008,52.6602 50.5,52.5C 50.5,56.1667 50.5,59.8333 50.5,63.5C 39.1667,63.5 27.8333,63.5 16.5,63.5C 16.5,59.8333 16.5,56.1667 16.5,52.5C 18.1992,52.6602 19.8659,52.4935 21.5,52C 23.503,49.9978 25.8364,48.4978 28.5,47.5C 29.3742,45.2534 29.7076,42.9201 29.5,40.5C 24.1058,38.2757 20.1058,34.4423 17.5,29C 8.30375,26.7896 4.47041,20.9562 6,11.5C 8.04083,10.5769 10.2075,10.2436 12.5,10.5C 12.5,8.83333 12.5,7.16667 12.5,5.5 Z"/></g>
<g><path style="opacity:1" fill="#f5e7e6" d="M 53.5,12.5 C 55.5,12.5 57.5,12.5 59.5,12.5C 60.4049,19.3713 57.7383,24.038 51.5,26.5C 50.8333,26.3333 50.1667,26.1667 49.5,26C 51.8395,21.8107 53.1729,17.3107 53.5,12.5 Z"/></g>
<g><path style="opacity:1" fill="#f5e7e6" d="M 7.5,12.5 C 9.5,12.5 11.5,12.5 13.5,12.5C 13.8763,16.9655 14.8763,21.2989 16.5,25.5C 13.9743,26.5099 11.8077,25.8432 10,23.5C 8.09614,20.0769 7.2628,16.4102 7.5,12.5 Z"/></g>
<g><path style="opacity:1" fill="#f6f0f0" d="M 14.5,8.5 C 27.3443,8.17132 40.011,8.50465 52.5,9.5C 51.5306,20.591 47.1973,30.091 39.5,38C 31.5083,41.0896 25.3417,38.923 21,31.5C 17.4287,24.2129 15.2621,16.5462 14.5,8.5 Z"/></g>
<g><path style="opacity:1" fill="#e12a21" d="M 33.5,14.5 C 35.4087,17.0913 38.0754,18.758 41.5,19.5C 39.3173,21.7069 37.9839,24.3736 37.5,27.5C 34.8663,26.484 32.1996,26.484 29.5,27.5C 29.8956,24.5178 29.2289,21.8511 27.5,19.5C 30.71,19.214 32.71,17.5473 33.5,14.5 Z"/></g>
<g><path style="opacity:1" fill="#f5d2d1" d="M 33.5,17.5 C 35.0145,18.6801 36.6812,19.6801 38.5,20.5C 37.1468,21.5237 36.4802,22.857 36.5,24.5C 34.8561,24.2865 33.3561,24.6198 32,25.5C 31.654,23.7818 31.154,22.1151 30.5,20.5C 31.9935,19.8589 32.9935,18.8589 33.5,17.5 Z"/></g>
<g><path style="opacity:1" fill="#efb3b3" d="M 14.5,8.5 C 27.3394,7.17483 40.3394,7.17483 53.5,8.5C 53.3764,9.10667 53.0431,9.44001 52.5,9.5C 40.011,8.50465 27.3443,8.17132 14.5,8.5 Z"/></g>
<g><path style="opacity:1" fill="#f5e2e2" d="M 31.5,41.5 C 32.8333,41.5 34.1667,41.5 35.5,41.5C 35.0262,46.9565 37.3595,50.4565 42.5,52C 36.5,52.6667 30.5,52.6667 24.5,52C 29.6927,50.4568 32.026,46.9568 31.5,41.5 Z"/></g>
<g><path style="opacity:1" fill="#f5eded" d="M 18.5,54.5 C 28.5,54.5 38.5,54.5 48.5,54.5C 48.5,56.8333 48.5,59.1667 48.5,61.5C 38.5,61.5 28.5,61.5 18.5,61.5C 18.5,59.1667 18.5,56.8333 18.5,54.5 Z"/></g>
</svg>
