<?xml version="1.0" encoding="UTF-8"?>
<!DOCTYPE svg PUBLIC "-//W3C//DTD SVG 1.1//EN" "http://www.w3.org/Graphics/SVG/1.1/DTD/svg11.dtd">
<svg xmlns="http://www.w3.org/2000/svg" version="1.1" width="44px" height="45px" style="shape-rendering:geometricPrecision; text-rendering:geometricPrecision; image-rendering:optimizeQuality; fill-rule:evenodd; clip-rule:evenodd" xmlns:xlink="http://www.w3.org/1999/xlink">
<g><path style="opacity:0.004" fill="#fffff" d="M 12.5,-0.5 C 12.8333,-0.5 13.1667,-0.5 13.5,-0.5C 13.3147,0.170143 12.9813,0.170143 12.5,-0.5 Z"/></g>
<g><path style="opacity:0.528" fill="#fffff" d="M 18.5,6.5 C 23.1387,4.60966 25.6387,6.27633 26,11.5C 26.7504,12.1258 27.5838,12.6258 28.5,13C 27.4464,14.3876 27.2797,15.8876 28,17.5C 31.1772,15.2168 34.6772,14.3835 38.5,15C 37.2264,15.9772 37.2264,16.8106 38.5,17.5C 39.3705,20.1123 40.0372,22.779 40.5,25.5C 41.391,24.8902 42.391,24.5569 43.5,24.5C 43.5,25.1667 43.5,25.8333 43.5,26.5C 42.1154,27.5736 40.9487,28.9069 40,30.5C 38.984,29.3659 38.3173,29.6992 38,31.5C 36.2507,30.4468 34.7507,30.7801 33.5,32.5C 29.3134,32.4981 26.8134,34.4981 26,38.5C 22.465,43.3028 18.6317,43.6362 14.5,39.5C 12.8633,36.0195 13.5299,33.0195 16.5,30.5C 15.8907,27.1634 14.724,26.8301 13,29.5C 13.8882,24.5486 12.8882,19.882 10,15.5C 9.66667,16.1667 9.33333,16.8333 9,17.5C 8.40544,16.1011 8.57211,14.7678 9.5,13.5C 9.16667,12.8333 8.83333,12.1667 8.5,11.5C 5.74942,10.984 3.41609,9.81729 1.5,8C 5.44177,6.62226 6.44177,4.12226 4.5,0.5C 6.12377,0.360072 7.29044,1.02674 8,2.5C 8.33333,2.16667 8.66667,1.83333 9,1.5C 8.71091,5.33134 9.71091,8.99801 12,12.5C 12.3095,11.2341 12.8095,10.0674 13.5,9C 15.4913,8.62638 17.158,7.79305 18.5,6.5 Z M 20.5,8.5 C 21.3764,8.36912 22.0431,8.70245 22.5,9.5C 23.1667,11.1667 23.8333,12.8333 24.5,14.5C 22.417,15.9587 20.2503,17.2921 18,18.5C 17.4427,16.3853 16.6094,14.3853 15.5,12.5C 17.0147,10.9178 18.6814,9.5845 20.5,8.5 Z M 30.5,26.5 C 29.8333,25.1667 29.1667,25.1667 28.5,26.5C 27.5519,28.0108 25.7185,29.3441 23,30.5C 20.9737,30.0853 19.4737,29.0853 18.5,27.5C 19.8235,28.8499 20.8235,28.6833 21.5,27C 20.8524,25.5603 20.5191,24.0603 20.5,22.5C 25.4091,20.4727 30.4091,18.9727 35.5,18C 35.1667,18.3333 34.8333,18.6667 34.5,19C 36.0995,20.0658 37.0995,21.5658 37.5,23.5C 35.4229,25.0818 33.0896,26.0818 30.5,26.5 Z M 15.5,20.5 C 17.4484,22.3204 18.4484,24.6538 18.5,27.5C 16.9348,25.4907 15.9348,23.1573 15.5,20.5 Z M 40.5,25.5 C 39.7961,27.3442 38.4628,27.8442 36.5,27C 37.9007,26.5899 39.234,26.0899 40.5,25.5 Z M 24.5,30.5 C 25.2891,30.7828 25.9558,31.2828 26.5,32C 25.184,32.5281 24.5173,32.0281 24.5,30.5 Z M 22.5,33.5 C 19.0504,32.7564 17.3838,34.0897 17.5,37.5C 16.1991,36.1155 16.1991,34.6155 17.5,33C 19.3869,32.2204 21.0536,32.3871 22.5,33.5 Z M 22.5,33.5 C 23.7879,35.0348 23.7879,36.7015 22.5,38.5C 20.38,40.0093 18.7133,39.676 17.5,37.5C 19.1667,37.5 20.8333,37.5 22.5,37.5C 22.5,36.1667 22.5,34.8333 22.5,33.5 Z"/></g>
<g><path style="opacity:0.004" fill="#fffff" d="M 18.5,6.5 C 17.8333,5.16667 17.8333,5.16667 18.5,6.5 Z"/></g>
<g><path style="opacity:0.004" fill="#fffff" d="M 38.5,16.5 C 39.8333,17.1667 39.8333,17.1667 38.5,16.5 Z"/></g>
<g><path style="opacity:0.004" fill="#fffff" d="M 5.5,17.5 C 6.83333,18.1667 6.83333,18.1667 5.5,17.5 Z"/></g>
<g><path style="opacity:0.007" fill="#fffff" d="M 4.5,21.5 C 5.23891,21.369 5.90558,21.5357 6.5,22C 5,23.5 3.5,25 2,26.5C 2.05789,24.5646 2.89122,22.8979 4.5,21.5 Z"/></g>
<g><path style="opacity:0.005" fill="#fffff" d="M 9.5,27.5 C 10.7733,28.0768 10.7733,28.7435 9.5,29.5C 8.53705,29.0302 8.53705,28.3635 9.5,27.5 Z"/></g>
<g><path style="opacity:0.004" fill="#fffff" d="M 33.5,32.5 C 34.8333,33.1667 34.8333,33.1667 33.5,32.5 Z"/></g>
<g><path style="opacity:0.374" fill="#fffff" d="M 22.5,33.5 C 22.5,34.8333 22.5,36.1667 22.5,37.5C 20.8333,37.5 19.1667,37.5 17.5,37.5C 17.3838,34.0897 19.0504,32.7564 22.5,33.5 Z"/></g>
<g><path style="opacity:0.008" fill="#fffff" d="M 33.5,33.5 C 32.8333,34.1667 32.8333,34.1667 33.5,33.5 Z"/></g>
<g><path style="opacity:0.004" fill="#fffff" d="M 29.5,36.5 C 30.8333,37.1667 30.8333,37.1667 29.5,36.5 Z"/></g>
<g><path style="opacity:0.004" fill="#fffff" d="M -0.5,39.5 C 0.833333,40.1667 0.833333,40.8333 -0.5,41.5C -0.5,40.8333 -0.5,40.1667 -0.5,39.5 Z"/></g>
<g><path style="opacity:0.004" fill="#fffff" d="M 14.5,39.5 C 13.8333,40.1667 13.8333,40.1667 14.5,39.5 Z"/></g>
<g><path style="opacity:0.005" fill="#fffff" d="M 10.5,44.5 C 10.1667,44.5 9.83333,44.5 9.5,44.5C 9.74001,41.7067 10.74,41.2067 12.5,43C 11.5842,43.2784 10.9175,43.7784 10.5,44.5 Z"/></g>
<g><path style="opacity:0.004" fill="#fffff" d="M 24.5,41.5 C 25.8333,42.1667 25.8333,42.1667 24.5,41.5 Z"/></g>
<g><path style="opacity:0.004" fill="#fefffe" d="M 40.5,41.5 C 41.8333,42.1667 41.8333,42.1667 40.5,41.5 Z"/></g>
<g><path style="opacity:0.007" fill="#fffff" d="M 24.5,42.5 C 24.5,43.1667 24.5,43.8333 24.5,44.5C 23.8333,44.5 23.1667,44.5 22.5,44.5C 22.8333,43.5 23.5,42.8333 24.5,42.5 Z"/></g>
<g><path style="opacity:0.008" fill="#fffff" d="M 40.5,42.5 C 40.5,43.1667 40.5,43.8333 40.5,44.5C 39.5,44.5 38.5,44.5 37.5,44.5C 37.9731,43.0937 38.9731,42.427 40.5,42.5 Z"/></g>
</svg>
