<?xml version="1.0" encoding="UTF-8"?>
<!DOCTYPE svg PUBLIC "-//W3C//DTD SVG 1.1//EN" "http://www.w3.org/Graphics/SVG/1.1/DTD/svg11.dtd">
<svg xmlns="http://www.w3.org/2000/svg" version="1.1" width="70px" height="65px" style="shape-rendering:geometricPrecision; text-rendering:geometricPrecision; image-rendering:optimizeQuality; fill-rule:evenodd; clip-rule:evenodd" xmlns:xlink="http://www.w3.org/1999/xlink">
<g><path style="opacity:1" fill="#f6f3f3" d="M -0.5,-0.5 C 22.8333,-0.5 46.1667,-0.5 69.5,-0.5C 69.5,21.1667 69.5,42.8333 69.5,64.5C 46.1667,64.5 22.8333,64.5 -0.5,64.5C -0.5,42.8333 -0.5,21.1667 -0.5,-0.5 Z"/></g>
<g><path style="opacity:1" fill="#e12820" d="M 25.5,6.5 C 26.7498,6.57735 27.5831,7.24402 28,8.5C 28.4807,12.5314 29.1473,16.5314 30,20.5C 32.3825,25.0666 35.0491,25.4 38,21.5C 38.8333,18.5 39.6667,15.5 40.5,12.5C 41.1667,14.8333 41.8333,17.1667 42.5,19.5C 50.6952,17.4005 56.8619,20.0671 61,27.5C 61.4983,30.8168 61.665,34.1501 61.5,37.5C 63.288,37.2148 64.9547,37.5481 66.5,38.5C 64.5767,39.3078 62.5767,39.8078 60.5,40C 53.2662,49.944 43.9328,56.6107 32.5,60C 28.1019,56.6057 23.4352,53.6057 18.5,51C 14.9383,47.9416 11.9383,44.4416 9.5,40.5C 7.16667,39.8333 4.83333,39.1667 2.5,38.5C 4.4233,37.6922 6.4233,37.1922 8.5,37C 6.89923,24.4263 12.5659,18.2596 25.5,18.5C 25.5,14.5 25.5,10.5 25.5,6.5 Z"/></g>
<g><path style="opacity:1" fill="#f6e9e9" d="M 26.5,21.5 C 27.6491,21.7911 28.3158,22.6244 28.5,24C 29.8002,33.5703 31.4668,43.0703 33.5,52.5C 36.098,43.0203 38.2647,33.3536 40,23.5C 40.8113,31.1696 41.6446,38.8363 42.5,46.5C 46.0356,40.2456 51.369,38.079 58.5,40C 52.1402,48.0251 44.3068,54.1918 35,58.5C 26.8168,54.7421 19.4834,49.7421 13,43.5C 12.5,42.5 12,41.5 11.5,40.5C 16.1196,39.5067 20.7863,39.1734 25.5,39.5C 25.5925,33.4836 25.9258,27.4836 26.5,21.5 Z"/></g>
<g><path style="opacity:1" fill="#f5e0df" d="M 30.5,23.5 C 31.8366,24.3149 32.8366,25.4815 33.5,27C 34.9961,27.5074 36.1627,27.0074 37,25.5C 36.3805,31.8304 35.3805,38.1637 34,44.5C 32.1833,37.5999 31.0166,30.5999 30.5,23.5 Z"/></g>
<g><path style="opacity:1" fill="#f5f1f1" d="M 44.5,41.5 C 43.8333,38.1667 43.1667,34.8333 42.5,31.5C 40.7945,20.1157 45.1278,17.2824 55.5,23C 57.0488,24.214 58.2155,25.714 59,27.5C 59.4983,30.8168 59.665,34.1501 59.5,37.5C 55.4862,37.3345 51.4862,37.5012 47.5,38C 46.2899,39.0391 45.2899,40.2058 44.5,41.5 Z"/></g>
<g><path style="opacity:1" fill="#f5f0f0" d="M 17.5,20.5 C 19.8333,20.5 22.1667,20.5 24.5,20.5C 24.4676,26.1886 24.1342,31.8552 23.5,37.5C 9.97934,41.1593 6.14601,36.826 12,24.5C 13.8121,23.0229 15.6455,21.6896 17.5,20.5 Z"/></g>
<g><path style="opacity:1" fill="#eb8685" d="M 42.5,31.5 C 43.1667,34.8333 43.8333,38.1667 44.5,41.5C 44.44,42.0431 44.1067,42.3764 43.5,42.5C 42.5108,38.8927 42.1774,35.226 42.5,31.5 Z"/></g>
</svg>
