<?xml version="1.0" encoding="UTF-8"?>
<!DOCTYPE svg PUBLIC "-//W3C//DTD SVG 1.1//EN" "http://www.w3.org/Graphics/SVG/1.1/DTD/svg11.dtd">
<svg xmlns="http://www.w3.org/2000/svg" version="1.1" width="45px" height="42px" style="shape-rendering:geometricPrecision; text-rendering:geometricPrecision; image-rendering:optimizeQuality; fill-rule:evenodd; clip-rule:evenodd" xmlns:xlink="http://www.w3.org/1999/xlink">
<g><path style="opacity:0.544" fill="#fefffe" d="M 0.5,-0.5 C 1.16667,-0.5 1.83333,-0.5 2.5,-0.5C 3.5,0.833333 4.5,0.833333 5.5,-0.5C 7.16667,-0.5 8.83333,-0.5 10.5,-0.5C 13.5,0.833333 16.5,0.833333 19.5,-0.5C 21.5,-0.5 23.5,-0.5 25.5,-0.5C 27.8333,0.833333 30.1667,0.833333 32.5,-0.5C 32.8333,-0.5 33.1667,-0.5 33.5,-0.5C 33.8333,0.833333 34.1667,0.833333 34.5,-0.5C 34.8333,-0.5 35.1667,-0.5 35.5,-0.5C 34.2944,5.52615 34.2944,11.1928 35.5,16.5C 37.8333,16.5 40.1667,16.5 42.5,16.5C 42.5,21.8333 42.5,27.1667 42.5,32.5C 41.5,32.5 40.5,32.5 39.5,32.5C 39.5,33.8333 39.5,35.1667 39.5,36.5C 37.0968,36.607 35.2635,35.607 34,33.5C 32.9505,34.5171 31.7839,34.6838 30.5,34C 30.8333,33.6667 31.1667,33.3333 31.5,33C 28.8333,32.6667 26.1667,32.3333 23.5,32C 21.2599,28.9288 18.2599,27.9288 14.5,29C 12,31.5 9.5,34 7,36.5C 4.71082,34.4839 4.21082,32.1506 5.5,29.5C 3.60395,28.5344 1.60395,28.2011 -0.5,28.5C -0.5,19.1667 -0.5,9.83333 -0.5,0.5C 0.166667,0.5 0.5,0.166667 0.5,-0.5 Z M 12.5,26.5 C 11.828,25.7326 10.9947,25.0659 10,24.5C 7.6194,25.435 5.1194,25.7683 2.5,25.5C 2.33365,17.8261 2.50031,10.1594 3,2.5C 12.4166,3.48509 21.9166,3.81842 31.5,3.5C 31.5,10.8333 31.5,18.1667 31.5,25.5C 25.077,25.2088 18.7436,25.5422 12.5,26.5 Z M 35.5,16.5 C 35.5,17.5 35.5,18.5 35.5,19.5C 36.8333,19.5 38.1667,19.5 39.5,19.5C 39.8016,22.0593 39.4682,24.3926 38.5,26.5C 39.6256,27.8583 39.6256,29.1916 38.5,30.5C 37.8933,30.3764 37.56,30.0431 37.5,29.5C 36.609,28.8902 35.609,28.5569 34.5,28.5C 34.1832,24.2984 34.5166,20.2984 35.5,16.5 Z M 34.5,28.5 C 34.3893,29.1174 34.056,29.6174 33.5,30C 30.7728,30.8184 28.1062,30.6517 25.5,29.5C 28.4281,28.5159 31.4281,28.1826 34.5,28.5 Z"/></g>
<g><path style="opacity:0.277" fill="#fefffe" d="M 13.5,7.5 C 18.3652,8.75523 23.1985,8.75523 28,7.5C 28.49,8.79323 28.6567,10.1266 28.5,11.5C 21.5,11.5 14.5,11.5 7.5,11.5C 7.5,10.5 7.5,9.5 7.5,8.5C 9.73535,8.79472 11.7354,8.46138 13.5,7.5 Z"/></g>
<g><path style="opacity:0.418" fill="#fefffe" d="M 7.5,12.5 C 14.1998,12.17 20.8665,12.5033 27.5,13.5C 21.1928,14.3306 14.8594,14.8306 8.5,15C 14.8594,15.1694 21.1928,15.6694 27.5,16.5C 20.475,17.2 13.475,17.8667 6.5,18.5C 5.23023,16.2432 5.56356,14.2432 7.5,12.5 Z"/></g>
<g><path style="opacity:0.004" fill="#fefffe" d="M 39.5,12.5 C 40.8333,13.1667 40.8333,13.1667 39.5,12.5 Z"/></g>
<g><path style="opacity:0.007" fill="#fefffe" d="M 44.5,19.5 C 44.5,20.8333 44.5,22.1667 44.5,23.5C 43.1667,22.1667 43.1667,20.8333 44.5,19.5 Z"/></g>
<g><path style="opacity:0.004" fill="#fefffe" d="M 25.5,37.5 C 26.8333,38.1667 26.8333,38.1667 25.5,37.5 Z"/></g>
<g><path style="opacity:0.004" fill="#fefffe" d="M 29.5,37.5 C 30.8333,38.1667 30.8333,38.1667 29.5,37.5 Z"/></g>
<g><path style="opacity:0.004" fill="#fefffe" d="M 13.5,38.5 C 14.8333,39.1667 14.8333,39.1667 13.5,38.5 Z"/></g>
<g><path style="opacity:0.004" fill="#fefffe" d="M 25.5,38.5 C 24.8333,39.1667 24.8333,39.1667 25.5,38.5 Z"/></g>
<g><path style="opacity:0.004" fill="#fefffe" d="M 29.5,38.5 C 28.8333,39.1667 28.8333,39.1667 29.5,38.5 Z"/></g>
<g><path style="opacity:0.005" fill="#fefffe" d="M 38.5,41.5 C 38.1667,41.5 37.8333,41.5 37.5,41.5C 37.4614,40.2438 37.9614,39.2438 39,38.5C 39.4696,39.5768 39.3029,40.5768 38.5,41.5 Z"/></g>
<g><path style="opacity:0.004" fill="#fefffe" d="M 13.5,39.5 C 12.8333,40.1667 12.8333,40.1667 13.5,39.5 Z"/></g>
</svg>
