<?xml version="1.0" encoding="UTF-8"?>
<!DOCTYPE svg PUBLIC "-//W3C//DTD SVG 1.1//EN" "http://www.w3.org/Graphics/SVG/1.1/DTD/svg11.dtd">
<svg xmlns="http://www.w3.org/2000/svg" version="1.1" width="70px" height="65px" style="shape-rendering:geometricPrecision; text-rendering:geometricPrecision; image-rendering:optimizeQuality; fill-rule:evenodd; clip-rule:evenodd" xmlns:xlink="http://www.w3.org/1999/xlink">
<g><path style="opacity:1" fill="#f6f4f4" d="M -0.5,-0.5 C 22.8333,-0.5 46.1667,-0.5 69.5,-0.5C 69.5,21.1667 69.5,42.8333 69.5,64.5C 46.1667,64.5 22.8333,64.5 -0.5,64.5C -0.5,42.8333 -0.5,21.1667 -0.5,-0.5 Z"/></g>
<g><path style="opacity:1" fill="#e22d24" d="M 15.5,8.5 C 17.3904,8.2965 18.8904,8.96317 20,10.5C 20.4872,16.8133 23.4872,21.48 29,24.5C 31.0477,20.592 33.881,19.7587 37.5,22C 41.0088,29.1771 45.6755,35.5104 51.5,41C 55.7452,42.6508 60.0785,43.9841 64.5,45C 67.2309,47.8966 68.2309,51.3966 67.5,55.5C 61.2471,56.9795 54.9138,57.9795 48.5,58.5C 44.2587,58.7467 40.2587,57.9134 36.5,56C 25.8333,47.3333 15.1667,38.6667 4.5,30C 2.6123,28.0496 1.44564,25.8829 1,23.5C 5.36437,17.9703 10.1977,12.9703 15.5,8.5 Z"/></g>
<g><path style="opacity:1" fill="#f5e4e4" d="M 3.5,22.5 C 14.38,32.2119 25.7133,41.3785 37.5,50C 46.2745,54.1454 55.2745,54.6454 64.5,51.5C 65.3857,52.325 65.719,53.325 65.5,54.5C 60.0599,55.5669 54.5599,56.2336 49,56.5C 44.5941,56.7643 40.4274,55.9309 36.5,54C 25.0395,44.875 13.8728,35.375 3,25.5C 2.53042,24.4232 2.69708,23.4232 3.5,22.5 Z"/></g>
<g><path style="opacity:1" fill="#f5e4e3" d="M 8.5,17.5 C 10.4109,17.5743 11.5776,18.5743 12,20.5C 13.2504,23.0766 13.5837,25.7433 13,28.5C 10.973,26.473 8.97295,24.473 7,22.5C 6.38715,20.5048 6.88715,18.8381 8.5,17.5 Z"/></g>
<g><path style="opacity:1" fill="#f5e3e3" d="M 15.5,10.5 C 16.5,10.5 17.5,10.5 18.5,10.5C 19.2752,18.1294 23.1086,23.796 30,27.5C 32.0751,31.579 34.9084,35.079 38.5,38C 46.633,41.3987 54.9664,44.232 63.5,46.5C 51.88,49.012 41.5467,46.512 32.5,39C 24.7676,31.5362 18.7676,22.8695 14.5,13C 14.7432,12.0979 15.0766,11.2646 15.5,10.5 Z"/></g>
<g><path style="opacity:1" fill="#f19e9c" d="M 33.5,22.5 C 37.4734,23.4761 37.4734,24.4761 33.5,25.5C 32.8333,25.1667 32.1667,24.8333 31.5,24.5C 32.2427,23.8182 32.9094,23.1515 33.5,22.5 Z"/></g>
<g><path style="opacity:1" fill="#f5dbdb" d="M 35.5,26.5 C 38.7973,26.3287 39.1306,26.9954 36.5,28.5C 37.376,29.2508 38.376,29.7508 39.5,30C 36.999,31.4177 37.3323,32.4177 40.5,33C 40.1667,33.3333 39.8333,33.6667 39.5,34C 40.8333,34.3333 42.1667,34.6667 43.5,35C 44.2567,36.5122 45.2567,37.8455 46.5,39C 40.052,38.0731 35.3853,34.5731 32.5,28.5C 33.6016,27.8243 34.6016,27.1577 35.5,26.5 Z"/></g>
<g><path style="opacity:1" fill="#f5dedd" d="M 11.5,14.5 C 12.3764,14.3691 13.0431,14.7025 13.5,15.5C 20.502,31.6713 32.1686,42.8379 48.5,49C 54.1938,49.3844 59.8605,49.3844 65.5,49C 56.0147,52.6536 46.6814,52.3203 37.5,48C 30.3333,42.1667 23.1667,36.3333 16,30.5C 15.427,24.8707 13.927,19.5373 11.5,14.5 Z"/></g>
</svg>
