<?xml version="1.0" encoding="UTF-8"?>
<!DOCTYPE svg PUBLIC "-//W3C//DTD SVG 1.1//EN" "http://www.w3.org/Graphics/SVG/1.1/DTD/svg11.dtd">
<svg xmlns="http://www.w3.org/2000/svg" version="1.1" width="42px" height="46px" style="shape-rendering:geometricPrecision; text-rendering:geometricPrecision; image-rendering:optimizeQuality; fill-rule:evenodd; clip-rule:evenodd" xmlns:xlink="http://www.w3.org/1999/xlink">
<g><path style="opacity:0.603" fill="#fefffe" d="M 17.5,-0.5 C 19.1667,-0.5 20.8333,-0.5 22.5,-0.5C 22.5,0.833333 22.5,2.16667 22.5,3.5C 26.3323,3.94436 29.8323,5.27769 33,7.5C 33.6368,5.69692 34.8035,4.36359 36.5,3.5C 37.6046,5.6114 39.2712,6.94473 41.5,7.5C 41.5,8.5 41.5,9.5 41.5,10.5C 37.2399,11.0401 36.5733,12.7068 39.5,15.5C 39.7959,17.403 40.4625,19.0697 41.5,20.5C 41.5,23.1667 41.5,25.8333 41.5,28.5C 38.9946,36.3404 33.9946,42.007 26.5,45.5C 22.1667,45.5 17.8333,45.5 13.5,45.5C 12.791,44.596 11.791,44.2627 10.5,44.5C 8.1918,42.5293 5.85847,40.5293 3.5,38.5C 2.40425,35.9684 1.07092,33.6351 -0.5,31.5C -0.5,26.8333 -0.5,22.1667 -0.5,17.5C 0.736849,16.0351 1.73685,14.3684 2.5,12.5C 4.89493,9.13852 7.89493,6.47185 11.5,4.5C 13.5,4.16667 15.5,3.83333 17.5,3.5C 17.5,2.16667 17.5,0.833333 17.5,-0.5 Z M 19.5,7.5 C 18.2438,7.46141 17.2438,7.96141 16.5,9C 17.7522,11.0413 18.4188,13.3746 18.5,16C 18.3333,18.1667 18.1667,20.3333 18,22.5C 17.6667,22.1667 17.3333,21.8333 17,21.5C 16.6258,22.4162 16.1258,23.2496 15.5,24C 16.8621,26.0344 17.8621,28.2011 18.5,30.5C 21.2465,30.0724 22.9132,28.4057 23.5,25.5C 21.2928,19.7668 20.9594,13.9334 22.5,8C 21.9056,7.53566 21.2389,7.36899 20.5,7.5C 24.5902,6.34801 28.2568,7.34801 31.5,10.5C 39.3421,18.0563 40.3421,26.3896 34.5,35.5C 34.5654,35.0618 34.3988,34.7284 34,34.5C 32.4571,36.3783 30.6238,37.8783 28.5,39C 29.0944,39.4643 29.7611,39.631 30.5,39.5C 25.5195,42.8305 20.1861,43.6638 14.5,42C 15.6956,41.3457 15.6956,40.8457 14.5,40.5C 10.9021,41.3687 8.23545,40.0354 6.5,36.5C 7.54699,35.9222 7.38032,35.2555 6,34.5C 5.60123,34.7284 5.43456,35.0618 5.5,35.5C 3.8586,33.7126 2.8586,31.5459 2.5,29C 1.09853,21.6094 3.09853,15.2761 8.5,10C 12.0433,7.51642 15.71,6.68309 19.5,7.5 Z"/></g>
<g><path style="opacity:0.004" fill="#fefffe" d="M 13.5,0.5 C 14.8333,1.16667 14.8333,1.16667 13.5,0.5 Z"/></g>
<g><path style="opacity:0.008" fill="#fefffe" d="M 13.5,1.5 C 12.8333,2.16667 12.8333,2.16667 13.5,1.5 Z"/></g>
<g><path style="opacity:0.012" fill="#fefffe" d="M 23.5,1.5 C 24.8333,2.16667 24.8333,2.16667 23.5,1.5 Z"/></g>
<g><path style="opacity:0.008" fill="#fefffe" d="M 12.5,2.5 C 12.1667,3.16667 11.8333,3.83333 11.5,4.5C 9.20706,3.69871 9.5404,3.03204 12.5,2.5 Z"/></g>
<g><path style="opacity:0.524" fill="#fefffe" d="M 19.5,7.5 C 19.8333,8.83333 20.1667,8.83333 20.5,7.5C 21.2389,7.36899 21.9056,7.53566 22.5,8C 20.9594,13.9334 21.2928,19.7668 23.5,25.5C 22.9132,28.4057 21.2465,30.0724 18.5,30.5C 17.8621,28.2011 16.8621,26.0344 15.5,24C 16.1258,23.2496 16.6258,22.4162 17,21.5C 17.3333,21.8333 17.6667,22.1667 18,22.5C 18.1667,20.3333 18.3333,18.1667 18.5,16C 18.4188,13.3746 17.7522,11.0413 16.5,9C 17.2438,7.96141 18.2438,7.46141 19.5,7.5 Z"/></g>
<g><path style="opacity:0.004" fill="#fefffe" d="M 2.5,12.5 C 1.83333,11.1667 1.83333,11.1667 2.5,12.5 Z"/></g>
<g><path style="opacity:0.004" fill="#fefffe" d="M 16.5,11.5 C 17.6878,13.4959 17.0211,14.3293 14.5,14C 15.3805,13.2917 16.0472,12.4584 16.5,11.5 Z"/></g>
<g><path style="opacity:0.011" fill="#fefffe" d="M 41.5,13.5 C 41.5,14.5 41.5,15.5 41.5,16.5C 40.8333,16.1667 40.1667,15.8333 39.5,15.5C 39.5,14.1667 40.1667,13.5 41.5,13.5 Z"/></g>
<g><path style="opacity:0.008" fill="#fefffe" d="M 3.5,38.5 C 2.83333,39.1667 2.83333,39.1667 3.5,38.5 Z"/></g>
<g><path style="opacity:0.008" fill="#fefffe" d="M 10.5,44.5 C 10.5,44.8333 10.5,45.1667 10.5,45.5C 9.82986,45.0187 9.82986,44.6853 10.5,44.5 Z"/></g>
</svg>
